<mxfile host="app.diagrams.net" modified="2023-03-09T20:29:57.804Z" agent="5.0 (Windows NT 10.0; Win64; x64) AppleWebKit/537.36 (KHTML, like Gecko) Chrome/110.0.0.0 Safari/537.36" etag="o253lAUclc1vliVUmvO8" version="21.0.2" type="github">
  <diagram name="PÃ¡gina-1" id="34c1tFqvSpJC6opD18yf">
    <mxGraphModel dx="4924" dy="3189" grid="1" gridSize="10" guides="1" tooltips="1" connect="1" arrows="1" fold="1" page="1" pageScale="1" pageWidth="827" pageHeight="1169" math="0" shadow="0">
      <root>
        <mxCell id="0" />
        <mxCell id="1" parent="0" />
        <mxCell id="nKR082mUFp1Buz5sR-zI-10" value="(1,N)" style="edgeStyle=orthogonalEdgeStyle;rounded=0;orthogonalLoop=1;jettySize=auto;html=1;exitX=1;exitY=0.5;exitDx=0;exitDy=0;endArrow=none;endFill=0;" edge="1" parent="1" source="nKR082mUFp1Buz5sR-zI-3" target="nKR082mUFp1Buz5sR-zI-8">
          <mxGeometry relative="1" as="geometry">
            <mxPoint as="offset" />
          </mxGeometry>
        </mxCell>
        <mxCell id="nKR082mUFp1Buz5sR-zI-3" value="USUARIO" style="whiteSpace=wrap;html=1;align=center;" vertex="1" parent="1">
          <mxGeometry x="120" y="70" width="100" height="40" as="geometry" />
        </mxCell>
        <mxCell id="nKR082mUFp1Buz5sR-zI-46" style="edgeStyle=orthogonalEdgeStyle;rounded=0;orthogonalLoop=1;jettySize=auto;html=1;exitX=1;exitY=0.5;exitDx=0;exitDy=0;entryX=0;entryY=0.5;entryDx=0;entryDy=0;" edge="1" parent="1" source="nKR082mUFp1Buz5sR-zI-4" target="nKR082mUFp1Buz5sR-zI-3">
          <mxGeometry relative="1" as="geometry" />
        </mxCell>
        <mxCell id="nKR082mUFp1Buz5sR-zI-4" value="NM_usuario" style="ellipse;whiteSpace=wrap;html=1;align=center;" vertex="1" parent="1">
          <mxGeometry x="-30" width="100" height="40" as="geometry" />
        </mxCell>
        <mxCell id="nKR082mUFp1Buz5sR-zI-45" style="edgeStyle=orthogonalEdgeStyle;rounded=0;orthogonalLoop=1;jettySize=auto;html=1;exitX=1;exitY=0.5;exitDx=0;exitDy=0;entryX=0;entryY=0.5;entryDx=0;entryDy=0;" edge="1" parent="1" source="nKR082mUFp1Buz5sR-zI-5" target="nKR082mUFp1Buz5sR-zI-3">
          <mxGeometry relative="1" as="geometry" />
        </mxCell>
        <mxCell id="nKR082mUFp1Buz5sR-zI-5" value="DS_login" style="ellipse;whiteSpace=wrap;html=1;align=center;" vertex="1" parent="1">
          <mxGeometry x="-30" y="40" width="100" height="40" as="geometry" />
        </mxCell>
        <mxCell id="nKR082mUFp1Buz5sR-zI-44" style="edgeStyle=orthogonalEdgeStyle;rounded=0;orthogonalLoop=1;jettySize=auto;html=1;exitX=1;exitY=0.5;exitDx=0;exitDy=0;" edge="1" parent="1" source="nKR082mUFp1Buz5sR-zI-6">
          <mxGeometry relative="1" as="geometry">
            <mxPoint x="120" y="90" as="targetPoint" />
          </mxGeometry>
        </mxCell>
        <mxCell id="nKR082mUFp1Buz5sR-zI-6" value="DS_senha" style="ellipse;whiteSpace=wrap;html=1;align=center;" vertex="1" parent="1">
          <mxGeometry x="-30" y="80" width="100" height="40" as="geometry" />
        </mxCell>
        <mxCell id="nKR082mUFp1Buz5sR-zI-11" value="(1,1)" style="edgeStyle=orthogonalEdgeStyle;rounded=0;orthogonalLoop=1;jettySize=auto;html=1;exitX=1;exitY=0.5;exitDx=0;exitDy=0;entryX=0;entryY=0.5;entryDx=0;entryDy=0;endArrow=none;endFill=0;" edge="1" parent="1" source="nKR082mUFp1Buz5sR-zI-8" target="nKR082mUFp1Buz5sR-zI-9">
          <mxGeometry relative="1" as="geometry" />
        </mxCell>
        <mxCell id="nKR082mUFp1Buz5sR-zI-8" value="possui" style="shape=rhombus;perimeter=rhombusPerimeter;whiteSpace=wrap;html=1;align=center;" vertex="1" parent="1">
          <mxGeometry x="260" y="60" width="120" height="60" as="geometry" />
        </mxCell>
        <mxCell id="nKR082mUFp1Buz5sR-zI-17" value="(0,N)" style="edgeStyle=orthogonalEdgeStyle;rounded=0;orthogonalLoop=1;jettySize=auto;html=1;exitX=0.5;exitY=1;exitDx=0;exitDy=0;endArrow=none;endFill=0;" edge="1" parent="1" source="nKR082mUFp1Buz5sR-zI-9" target="nKR082mUFp1Buz5sR-zI-14">
          <mxGeometry relative="1" as="geometry" />
        </mxCell>
        <mxCell id="nKR082mUFp1Buz5sR-zI-9" value="PERFIL" style="whiteSpace=wrap;html=1;align=center;" vertex="1" parent="1">
          <mxGeometry x="420" y="70" width="100" height="40" as="geometry" />
        </mxCell>
        <mxCell id="nKR082mUFp1Buz5sR-zI-27" value="(1,1)" style="edgeStyle=orthogonalEdgeStyle;rounded=0;orthogonalLoop=1;jettySize=auto;html=1;exitX=1;exitY=0.5;exitDx=0;exitDy=0;entryX=0;entryY=0.5;entryDx=0;entryDy=0;endArrow=none;endFill=0;" edge="1" parent="1" source="nKR082mUFp1Buz5sR-zI-12" target="nKR082mUFp1Buz5sR-zI-15">
          <mxGeometry relative="1" as="geometry" />
        </mxCell>
        <mxCell id="nKR082mUFp1Buz5sR-zI-12" value="CATEGORIA" style="whiteSpace=wrap;html=1;align=center;" vertex="1" parent="1">
          <mxGeometry x="120" y="240" width="100" height="40" as="geometry" />
        </mxCell>
        <mxCell id="nKR082mUFp1Buz5sR-zI-13" value="PERMISSAO" style="whiteSpace=wrap;html=1;align=center;" vertex="1" parent="1">
          <mxGeometry x="420" y="240" width="100" height="40" as="geometry" />
        </mxCell>
        <mxCell id="nKR082mUFp1Buz5sR-zI-24" value="(1,N)" style="edgeStyle=orthogonalEdgeStyle;rounded=0;orthogonalLoop=1;jettySize=auto;html=1;exitX=0.5;exitY=1;exitDx=0;exitDy=0;endArrow=none;endFill=0;" edge="1" parent="1" source="nKR082mUFp1Buz5sR-zI-14" target="nKR082mUFp1Buz5sR-zI-13">
          <mxGeometry relative="1" as="geometry" />
        </mxCell>
        <mxCell id="nKR082mUFp1Buz5sR-zI-14" value="PERMISSOES_PERFIL" style="shape=rhombus;perimeter=rhombusPerimeter;whiteSpace=wrap;html=1;align=center;" vertex="1" parent="1">
          <mxGeometry x="390" y="140" width="160" height="60" as="geometry" />
        </mxCell>
        <mxCell id="nKR082mUFp1Buz5sR-zI-26" value="(1,N)" style="edgeStyle=orthogonalEdgeStyle;rounded=0;orthogonalLoop=1;jettySize=auto;html=1;exitX=1;exitY=0.5;exitDx=0;exitDy=0;endArrow=none;endFill=0;" edge="1" parent="1" source="nKR082mUFp1Buz5sR-zI-15" target="nKR082mUFp1Buz5sR-zI-13">
          <mxGeometry relative="1" as="geometry">
            <mxPoint as="offset" />
          </mxGeometry>
        </mxCell>
        <mxCell id="nKR082mUFp1Buz5sR-zI-15" value="agrupa" style="shape=rhombus;perimeter=rhombusPerimeter;whiteSpace=wrap;html=1;align=center;" vertex="1" parent="1">
          <mxGeometry x="260" y="230" width="120" height="60" as="geometry" />
        </mxCell>
        <mxCell id="nKR082mUFp1Buz5sR-zI-47" style="edgeStyle=orthogonalEdgeStyle;rounded=0;orthogonalLoop=1;jettySize=auto;html=1;exitX=0;exitY=0.5;exitDx=0;exitDy=0;entryX=1;entryY=0.5;entryDx=0;entryDy=0;" edge="1" parent="1" source="nKR082mUFp1Buz5sR-zI-21" target="nKR082mUFp1Buz5sR-zI-9">
          <mxGeometry relative="1" as="geometry" />
        </mxCell>
        <mxCell id="nKR082mUFp1Buz5sR-zI-21" value="NM_perfil" style="ellipse;whiteSpace=wrap;html=1;align=center;" vertex="1" parent="1">
          <mxGeometry x="550" y="70" width="100" height="40" as="geometry" />
        </mxCell>
        <mxCell id="nKR082mUFp1Buz5sR-zI-52" style="edgeStyle=orthogonalEdgeStyle;rounded=0;orthogonalLoop=1;jettySize=auto;html=1;exitX=0;exitY=0.5;exitDx=0;exitDy=0;entryX=1;entryY=0.5;entryDx=0;entryDy=0;" edge="1" parent="1" source="nKR082mUFp1Buz5sR-zI-22" target="nKR082mUFp1Buz5sR-zI-13">
          <mxGeometry relative="1" as="geometry" />
        </mxCell>
        <mxCell id="nKR082mUFp1Buz5sR-zI-22" value="NM_permissao" style="ellipse;whiteSpace=wrap;html=1;align=center;" vertex="1" parent="1">
          <mxGeometry x="550" y="240" width="100" height="40" as="geometry" />
        </mxCell>
        <mxCell id="nKR082mUFp1Buz5sR-zI-54" style="edgeStyle=orthogonalEdgeStyle;rounded=0;orthogonalLoop=1;jettySize=auto;html=1;exitX=1;exitY=0.5;exitDx=0;exitDy=0;entryX=0;entryY=0.5;entryDx=0;entryDy=0;" edge="1" parent="1" source="nKR082mUFp1Buz5sR-zI-28" target="nKR082mUFp1Buz5sR-zI-12">
          <mxGeometry relative="1" as="geometry" />
        </mxCell>
        <mxCell id="nKR082mUFp1Buz5sR-zI-28" value="NM_categoria" style="ellipse;whiteSpace=wrap;html=1;align=center;" vertex="1" parent="1">
          <mxGeometry x="-31" y="260" width="100" height="40" as="geometry" />
        </mxCell>
        <mxCell id="nKR082mUFp1Buz5sR-zI-43" style="edgeStyle=orthogonalEdgeStyle;rounded=0;orthogonalLoop=1;jettySize=auto;html=1;exitX=1;exitY=0.5;exitDx=0;exitDy=0;entryX=0;entryY=0.5;entryDx=0;entryDy=0;" edge="1" parent="1" source="nKR082mUFp1Buz5sR-zI-29" target="nKR082mUFp1Buz5sR-zI-3">
          <mxGeometry relative="1" as="geometry" />
        </mxCell>
        <mxCell id="nKR082mUFp1Buz5sR-zI-29" value="SN_integracao_AD" style="ellipse;whiteSpace=wrap;html=1;align=center;" vertex="1" parent="1">
          <mxGeometry x="-50" y="120" width="120" height="40" as="geometry" />
        </mxCell>
        <mxCell id="nKR082mUFp1Buz5sR-zI-35" value="(1,N)" style="edgeStyle=orthogonalEdgeStyle;rounded=0;orthogonalLoop=1;jettySize=auto;html=1;exitX=0.5;exitY=1;exitDx=0;exitDy=0;entryX=1;entryY=0.5;entryDx=0;entryDy=0;endArrow=none;endFill=0;" edge="1" parent="1" source="nKR082mUFp1Buz5sR-zI-30" target="nKR082mUFp1Buz5sR-zI-32">
          <mxGeometry relative="1" as="geometry">
            <Array as="points">
              <mxPoint x="40" y="390" />
            </Array>
          </mxGeometry>
        </mxCell>
        <mxCell id="nKR082mUFp1Buz5sR-zI-120" value="(1,1)" style="edgeStyle=orthogonalEdgeStyle;rounded=0;orthogonalLoop=1;jettySize=auto;html=1;exitX=0.5;exitY=1;exitDx=0;exitDy=0;entryX=0.5;entryY=0;entryDx=0;entryDy=0;endArrow=none;endFill=0;" edge="1" parent="1" source="nKR082mUFp1Buz5sR-zI-30" target="nKR082mUFp1Buz5sR-zI-119">
          <mxGeometry relative="1" as="geometry" />
        </mxCell>
        <mxCell id="nKR082mUFp1Buz5sR-zI-30" value="LOCAL" style="whiteSpace=wrap;html=1;align=center;" vertex="1" parent="1">
          <mxGeometry x="-10" y="545" width="100" height="40" as="geometry" />
        </mxCell>
        <mxCell id="nKR082mUFp1Buz5sR-zI-53" style="edgeStyle=orthogonalEdgeStyle;rounded=0;orthogonalLoop=1;jettySize=auto;html=1;exitX=1;exitY=0.5;exitDx=0;exitDy=0;" edge="1" parent="1" source="nKR082mUFp1Buz5sR-zI-31" target="nKR082mUFp1Buz5sR-zI-30">
          <mxGeometry relative="1" as="geometry" />
        </mxCell>
        <mxCell id="nKR082mUFp1Buz5sR-zI-31" value="NM_local" style="ellipse;whiteSpace=wrap;html=1;align=center;" vertex="1" parent="1">
          <mxGeometry x="-160" y="545" width="100" height="40" as="geometry" />
        </mxCell>
        <mxCell id="nKR082mUFp1Buz5sR-zI-36" value="(1,1)" style="edgeStyle=orthogonalEdgeStyle;rounded=0;orthogonalLoop=1;jettySize=auto;html=1;exitX=0;exitY=0.5;exitDx=0;exitDy=0;entryX=1;entryY=0.75;entryDx=0;entryDy=0;endArrow=none;endFill=0;" edge="1" parent="1" source="nKR082mUFp1Buz5sR-zI-32" target="nKR082mUFp1Buz5sR-zI-33">
          <mxGeometry relative="1" as="geometry">
            <Array as="points">
              <mxPoint x="-190" y="390" />
            </Array>
          </mxGeometry>
        </mxCell>
        <mxCell id="nKR082mUFp1Buz5sR-zI-32" value="faz parte" style="shape=rhombus;perimeter=rhombusPerimeter;whiteSpace=wrap;html=1;align=center;" vertex="1" parent="1">
          <mxGeometry x="-100" y="360" width="120" height="60" as="geometry" />
        </mxCell>
        <mxCell id="nKR082mUFp1Buz5sR-zI-33" value="FILIAL" style="whiteSpace=wrap;html=1;align=center;" vertex="1" parent="1">
          <mxGeometry x="-290" y="370" width="100" height="40" as="geometry" />
        </mxCell>
        <mxCell id="nKR082mUFp1Buz5sR-zI-51" style="edgeStyle=orthogonalEdgeStyle;rounded=0;orthogonalLoop=1;jettySize=auto;html=1;exitX=1;exitY=0.5;exitDx=0;exitDy=0;" edge="1" parent="1" source="nKR082mUFp1Buz5sR-zI-34">
          <mxGeometry relative="1" as="geometry">
            <mxPoint x="-290" y="390" as="targetPoint" />
            <Array as="points" />
          </mxGeometry>
        </mxCell>
        <mxCell id="nKR082mUFp1Buz5sR-zI-34" value="NM_filial" style="ellipse;whiteSpace=wrap;html=1;align=center;" vertex="1" parent="1">
          <mxGeometry x="-460" y="370" width="100" height="40" as="geometry" />
        </mxCell>
        <mxCell id="nKR082mUFp1Buz5sR-zI-60" value="(0,N)" style="edgeStyle=orthogonalEdgeStyle;rounded=0;orthogonalLoop=1;jettySize=auto;html=1;exitX=1;exitY=0.5;exitDx=0;exitDy=0;entryX=0;entryY=0.5;entryDx=0;entryDy=0;endArrow=none;endFill=0;" edge="1" parent="1" source="nKR082mUFp1Buz5sR-zI-55" target="nKR082mUFp1Buz5sR-zI-58">
          <mxGeometry relative="1" as="geometry" />
        </mxCell>
        <mxCell id="nKR082mUFp1Buz5sR-zI-98" value="(1,N)" style="edgeStyle=orthogonalEdgeStyle;rounded=0;orthogonalLoop=1;jettySize=auto;html=1;exitX=0.5;exitY=0;exitDx=0;exitDy=0;entryX=0.5;entryY=1;entryDx=0;entryDy=0;endArrow=none;endFill=0;" edge="1" parent="1" source="nKR082mUFp1Buz5sR-zI-55" target="nKR082mUFp1Buz5sR-zI-96">
          <mxGeometry relative="1" as="geometry" />
        </mxCell>
        <mxCell id="nKR082mUFp1Buz5sR-zI-129" value="(1,N)" style="edgeStyle=orthogonalEdgeStyle;rounded=0;orthogonalLoop=1;jettySize=auto;html=1;exitX=0.25;exitY=1;exitDx=0;exitDy=0;entryX=0.5;entryY=1;entryDx=0;entryDy=0;endArrow=none;endFill=0;" edge="1" parent="1" source="nKR082mUFp1Buz5sR-zI-55" target="nKR082mUFp1Buz5sR-zI-128">
          <mxGeometry relative="1" as="geometry">
            <Array as="points">
              <mxPoint x="345" y="1155" />
              <mxPoint x="20" y="1155" />
            </Array>
          </mxGeometry>
        </mxCell>
        <mxCell id="nKR082mUFp1Buz5sR-zI-156" value="(1,1)" style="edgeStyle=orthogonalEdgeStyle;rounded=0;orthogonalLoop=1;jettySize=auto;html=1;entryX=0.5;entryY=0;entryDx=0;entryDy=0;exitX=0.75;exitY=1;exitDx=0;exitDy=0;endArrow=none;endFill=0;" edge="1" parent="1" source="nKR082mUFp1Buz5sR-zI-55" target="nKR082mUFp1Buz5sR-zI-155">
          <mxGeometry relative="1" as="geometry">
            <mxPoint x="410" y="1185.09" as="sourcePoint" />
          </mxGeometry>
        </mxCell>
        <mxCell id="nKR082mUFp1Buz5sR-zI-55" value="MEDICO" style="whiteSpace=wrap;html=1;align=center;" vertex="1" parent="1">
          <mxGeometry x="320" y="1145" width="100" height="40" as="geometry" />
        </mxCell>
        <mxCell id="nKR082mUFp1Buz5sR-zI-62" style="edgeStyle=orthogonalEdgeStyle;rounded=0;orthogonalLoop=1;jettySize=auto;html=1;exitX=1;exitY=0.5;exitDx=0;exitDy=0;entryX=0;entryY=0.5;entryDx=0;entryDy=0;" edge="1" parent="1" source="nKR082mUFp1Buz5sR-zI-56" target="nKR082mUFp1Buz5sR-zI-55">
          <mxGeometry relative="1" as="geometry" />
        </mxCell>
        <mxCell id="nKR082mUFp1Buz5sR-zI-56" value="NM_medico" style="ellipse;whiteSpace=wrap;html=1;align=center;" vertex="1" parent="1">
          <mxGeometry x="90" y="1215" width="100" height="40" as="geometry" />
        </mxCell>
        <mxCell id="nKR082mUFp1Buz5sR-zI-63" style="edgeStyle=orthogonalEdgeStyle;rounded=0;orthogonalLoop=1;jettySize=auto;html=1;exitX=1;exitY=0.5;exitDx=0;exitDy=0;entryX=0;entryY=0.5;entryDx=0;entryDy=0;" edge="1" parent="1" source="nKR082mUFp1Buz5sR-zI-57" target="nKR082mUFp1Buz5sR-zI-55">
          <mxGeometry relative="1" as="geometry">
            <mxPoint x="300" y="1245" as="targetPoint" />
            <Array as="points">
              <mxPoint x="260" y="1275" />
              <mxPoint x="260" y="1165" />
            </Array>
          </mxGeometry>
        </mxCell>
        <mxCell id="nKR082mUFp1Buz5sR-zI-57" value="CRM" style="ellipse;whiteSpace=wrap;html=1;align=center;" vertex="1" parent="1">
          <mxGeometry x="90" y="1255" width="100" height="40" as="geometry" />
        </mxCell>
        <mxCell id="nKR082mUFp1Buz5sR-zI-58" value="ESPECIALIDADE-MEDICO" style="shape=rhombus;perimeter=rhombusPerimeter;whiteSpace=wrap;html=1;align=center;" vertex="1" parent="1">
          <mxGeometry x="475" y="1135" width="170" height="60" as="geometry" />
        </mxCell>
        <mxCell id="nKR082mUFp1Buz5sR-zI-61" value="(0,N)" style="edgeStyle=orthogonalEdgeStyle;rounded=0;orthogonalLoop=1;jettySize=auto;html=1;exitX=0;exitY=0.5;exitDx=0;exitDy=0;entryX=1;entryY=0.5;entryDx=0;entryDy=0;endArrow=none;endFill=0;" edge="1" parent="1" source="nKR082mUFp1Buz5sR-zI-59" target="nKR082mUFp1Buz5sR-zI-58">
          <mxGeometry relative="1" as="geometry" />
        </mxCell>
        <mxCell id="nKR082mUFp1Buz5sR-zI-59" value="ESPECIALIDADE" style="whiteSpace=wrap;html=1;align=center;" vertex="1" parent="1">
          <mxGeometry x="690" y="1145" width="100" height="40" as="geometry" />
        </mxCell>
        <mxCell id="nKR082mUFp1Buz5sR-zI-65" style="edgeStyle=orthogonalEdgeStyle;rounded=0;orthogonalLoop=1;jettySize=auto;html=1;exitX=0;exitY=0.5;exitDx=0;exitDy=0;entryX=1;entryY=0.5;entryDx=0;entryDy=0;" edge="1" parent="1" source="nKR082mUFp1Buz5sR-zI-64" target="nKR082mUFp1Buz5sR-zI-59">
          <mxGeometry relative="1" as="geometry" />
        </mxCell>
        <mxCell id="nKR082mUFp1Buz5sR-zI-64" value="NM_especialidade" style="ellipse;whiteSpace=wrap;html=1;align=center;" vertex="1" parent="1">
          <mxGeometry x="820" y="1145" width="120" height="40" as="geometry" />
        </mxCell>
        <mxCell id="nKR082mUFp1Buz5sR-zI-75" value="PLANTAO" style="whiteSpace=wrap;html=1;align=center;" vertex="1" parent="1">
          <mxGeometry x="320" y="804.91" width="100" height="40" as="geometry" />
        </mxCell>
        <mxCell id="nKR082mUFp1Buz5sR-zI-76" style="edgeStyle=orthogonalEdgeStyle;rounded=0;orthogonalLoop=1;jettySize=auto;html=1;exitX=1;exitY=0.5;exitDx=0;exitDy=0;entryX=0;entryY=0.5;entryDx=0;entryDy=0;" edge="1" source="nKR082mUFp1Buz5sR-zI-77" target="nKR082mUFp1Buz5sR-zI-75" parent="1">
          <mxGeometry relative="1" as="geometry" />
        </mxCell>
        <mxCell id="nKR082mUFp1Buz5sR-zI-77" value="&lt;span style=&quot;border-bottom: 1px dotted&quot;&gt;DT_plantao&lt;/span&gt;" style="ellipse;whiteSpace=wrap;html=1;align=center;" vertex="1" parent="1">
          <mxGeometry x="170" y="804.91" width="100" height="40" as="geometry" />
        </mxCell>
        <mxCell id="nKR082mUFp1Buz5sR-zI-78" style="edgeStyle=orthogonalEdgeStyle;rounded=0;orthogonalLoop=1;jettySize=auto;html=1;exitX=1;exitY=0.5;exitDx=0;exitDy=0;" edge="1" source="nKR082mUFp1Buz5sR-zI-79" parent="1">
          <mxGeometry relative="1" as="geometry">
            <mxPoint x="320" y="824.91" as="targetPoint" />
            <Array as="points">
              <mxPoint x="290" y="865" />
              <mxPoint x="290" y="825" />
            </Array>
          </mxGeometry>
        </mxCell>
        <mxCell id="nKR082mUFp1Buz5sR-zI-79" value="repeticao" style="ellipse;whiteSpace=wrap;html=1;align=center;" vertex="1" parent="1">
          <mxGeometry x="170" y="844.9099999999999" width="100" height="40" as="geometry" />
        </mxCell>
        <mxCell id="nKR082mUFp1Buz5sR-zI-85" value="(1,1)" style="edgeStyle=orthogonalEdgeStyle;rounded=0;orthogonalLoop=1;jettySize=auto;html=1;exitX=0.5;exitY=0;exitDx=0;exitDy=0;entryX=0.999;entryY=0.593;entryDx=0;entryDy=0;endArrow=none;endFill=0;entryPerimeter=0;" edge="1" parent="1" source="nKR082mUFp1Buz5sR-zI-83" target="nKR082mUFp1Buz5sR-zI-30">
          <mxGeometry relative="1" as="geometry">
            <Array as="points">
              <mxPoint x="370" y="569" />
            </Array>
          </mxGeometry>
        </mxCell>
        <mxCell id="nKR082mUFp1Buz5sR-zI-87" value="(0,N)" style="edgeStyle=orthogonalEdgeStyle;rounded=0;orthogonalLoop=1;jettySize=auto;html=1;endArrow=none;endFill=0;exitX=0.5;exitY=1;exitDx=0;exitDy=0;" edge="1" parent="1" source="nKR082mUFp1Buz5sR-zI-83" target="nKR082mUFp1Buz5sR-zI-75">
          <mxGeometry x="0.7037" relative="1" as="geometry">
            <mxPoint x="370" y="735" as="sourcePoint" />
            <Array as="points">
              <mxPoint x="370" y="745" />
              <mxPoint x="370" y="745" />
            </Array>
            <mxPoint as="offset" />
          </mxGeometry>
        </mxCell>
        <mxCell id="nKR082mUFp1Buz5sR-zI-83" value="realiza" style="shape=rhombus;perimeter=rhombusPerimeter;whiteSpace=wrap;html=1;align=center;" vertex="1" parent="1">
          <mxGeometry x="310" y="674.91" width="120" height="60" as="geometry" />
        </mxCell>
        <mxCell id="nKR082mUFp1Buz5sR-zI-97" value="(0,N)" style="edgeStyle=orthogonalEdgeStyle;rounded=0;orthogonalLoop=1;jettySize=auto;html=1;exitX=0.5;exitY=0;exitDx=0;exitDy=0;entryX=0.5;entryY=1;entryDx=0;entryDy=0;endArrow=none;endFill=0;" edge="1" parent="1" source="nKR082mUFp1Buz5sR-zI-96" target="nKR082mUFp1Buz5sR-zI-75">
          <mxGeometry relative="1" as="geometry">
            <mxPoint x="370" y="904.9999999999998" as="targetPoint" />
            <Array as="points" />
          </mxGeometry>
        </mxCell>
        <mxCell id="nKR082mUFp1Buz5sR-zI-96" value="MEDICOS_PLANTAO" style="shape=rhombus;perimeter=rhombusPerimeter;whiteSpace=wrap;html=1;align=center;" vertex="1" parent="1">
          <mxGeometry x="280" y="935" width="150" height="60" as="geometry" />
        </mxCell>
        <mxCell id="nKR082mUFp1Buz5sR-zI-99" value="&lt;span style=&quot;background-color: rgb(0, 255, 255);&quot;&gt;Duvida1&lt;/span&gt;" style="text;html=1;align=center;verticalAlign=middle;resizable=0;points=[];autosize=1;strokeColor=none;fillColor=none;" vertex="1" parent="1">
          <mxGeometry x="220" y="950" width="70" height="30" as="geometry" />
        </mxCell>
        <mxCell id="nKR082mUFp1Buz5sR-zI-100" value="Duvida1: Como vou fazer a relaÃ§Ã£o de plantao com primeiro medico chefe&lt;br&gt;que Ã© obrigatorio ter e do segundo mÃ©dico com hora inicio e fim que sao opcionais. &lt;br&gt;R: com o atributo funcao eu consigo distinguir quem Ã© quem e medicos. &lt;br&gt;E nesse caso quando eu fosse editar um plantÃ£o eu iria fazer um select no banco &lt;br&gt;e se e nÃ£o encontrasse alguem com a funcao de 2Âº medico chefe esse campo assim com os&lt;br&gt;de horario ficariam em branco" style="text;html=1;align=center;verticalAlign=middle;resizable=0;points=[];autosize=1;strokeColor=none;fillColor=none;" vertex="1" parent="1">
          <mxGeometry x="-540" y="-25" width="520" height="100" as="geometry" />
        </mxCell>
        <mxCell id="nKR082mUFp1Buz5sR-zI-107" style="edgeStyle=orthogonalEdgeStyle;rounded=0;orthogonalLoop=1;jettySize=auto;html=1;exitX=0;exitY=0.5;exitDx=0;exitDy=0;" edge="1" parent="1" source="nKR082mUFp1Buz5sR-zI-101" target="nKR082mUFp1Buz5sR-zI-96">
          <mxGeometry relative="1" as="geometry" />
        </mxCell>
        <mxCell id="nKR082mUFp1Buz5sR-zI-101" value="HR_inicio" style="ellipse;whiteSpace=wrap;html=1;align=center;" vertex="1" parent="1">
          <mxGeometry x="480" y="925" width="100" height="40" as="geometry" />
        </mxCell>
        <mxCell id="nKR082mUFp1Buz5sR-zI-109" style="edgeStyle=orthogonalEdgeStyle;rounded=0;orthogonalLoop=1;jettySize=auto;html=1;exitX=0;exitY=0.5;exitDx=0;exitDy=0;" edge="1" parent="1" source="nKR082mUFp1Buz5sR-zI-102">
          <mxGeometry relative="1" as="geometry">
            <mxPoint x="430" y="965.4000000000001" as="targetPoint" />
          </mxGeometry>
        </mxCell>
        <mxCell id="nKR082mUFp1Buz5sR-zI-102" value="HR_fim" style="ellipse;whiteSpace=wrap;html=1;align=center;" vertex="1" parent="1">
          <mxGeometry x="480" y="965" width="100" height="40" as="geometry" />
        </mxCell>
        <mxCell id="nKR082mUFp1Buz5sR-zI-110" style="edgeStyle=orthogonalEdgeStyle;rounded=0;orthogonalLoop=1;jettySize=auto;html=1;exitX=0;exitY=0.5;exitDx=0;exitDy=0;entryX=1;entryY=0.5;entryDx=0;entryDy=0;" edge="1" parent="1" source="nKR082mUFp1Buz5sR-zI-103" target="nKR082mUFp1Buz5sR-zI-96">
          <mxGeometry relative="1" as="geometry" />
        </mxCell>
        <mxCell id="nKR082mUFp1Buz5sR-zI-103" value="funcao" style="ellipse;whiteSpace=wrap;html=1;align=center;" vertex="1" parent="1">
          <mxGeometry x="480" y="1005" width="100" height="40" as="geometry" />
        </mxCell>
        <mxCell id="nKR082mUFp1Buz5sR-zI-111" value="&lt;span style=&quot;background-color: rgb(0, 255, 255);&quot;&gt;Duvida2&lt;/span&gt;" style="text;html=1;align=center;verticalAlign=middle;resizable=0;points=[];autosize=1;strokeColor=none;fillColor=none;" vertex="1" parent="1">
          <mxGeometry x="590" y="970" width="70" height="30" as="geometry" />
        </mxCell>
        <mxCell id="nKR082mUFp1Buz5sR-zI-114" style="edgeStyle=orthogonalEdgeStyle;rounded=0;orthogonalLoop=1;jettySize=auto;html=1;exitX=0;exitY=0.5;exitDx=0;exitDy=0;entryX=1;entryY=0.5;entryDx=0;entryDy=0;" edge="1" parent="1" source="nKR082mUFp1Buz5sR-zI-113" target="nKR082mUFp1Buz5sR-zI-96">
          <mxGeometry relative="1" as="geometry" />
        </mxCell>
        <mxCell id="nKR082mUFp1Buz5sR-zI-113" value="SN_sozinho" style="ellipse;whiteSpace=wrap;html=1;align=center;" vertex="1" parent="1">
          <mxGeometry x="480" y="1045" width="100" height="40" as="geometry" />
        </mxCell>
        <mxCell id="nKR082mUFp1Buz5sR-zI-115" value="&lt;span style=&quot;background-color: rgb(102, 255, 255);&quot;&gt;Duvida3&lt;/span&gt;" style="text;html=1;align=center;verticalAlign=middle;resizable=0;points=[];autosize=1;strokeColor=none;fillColor=none;" vertex="1" parent="1">
          <mxGeometry x="590" y="1005" width="70" height="30" as="geometry" />
        </mxCell>
        <mxCell id="nKR082mUFp1Buz5sR-zI-116" value="Duvida3: Campo sozinho Ã© um atributo que da forma que esta montado seria &lt;br&gt;um campo que poderia ter valor de: nao se aplica, true, false?) R: deixar NÃO como padrÃ£o" style="text;html=1;align=center;verticalAlign=middle;resizable=0;points=[];autosize=1;strokeColor=none;fillColor=none;" vertex="1" parent="1">
          <mxGeometry x="-580" y="85" width="510" height="40" as="geometry" />
        </mxCell>
        <mxCell id="nKR082mUFp1Buz5sR-zI-117" value="SOBREAVISO" style="whiteSpace=wrap;html=1;align=center;" vertex="1" parent="1">
          <mxGeometry x="-30" y="905" width="100" height="40" as="geometry" />
        </mxCell>
        <mxCell id="nKR082mUFp1Buz5sR-zI-121" value="(0,N)" style="edgeStyle=orthogonalEdgeStyle;rounded=0;orthogonalLoop=1;jettySize=auto;html=1;exitX=0.5;exitY=1;exitDx=0;exitDy=0;entryX=0.5;entryY=0;entryDx=0;entryDy=0;endArrow=none;endFill=0;" edge="1" parent="1" source="nKR082mUFp1Buz5sR-zI-119" target="nKR082mUFp1Buz5sR-zI-117">
          <mxGeometry relative="1" as="geometry" />
        </mxCell>
        <mxCell id="nKR082mUFp1Buz5sR-zI-119" value="realiza" style="shape=rhombus;perimeter=rhombusPerimeter;whiteSpace=wrap;html=1;align=center;" vertex="1" parent="1">
          <mxGeometry x="-20" y="665" width="120" height="60" as="geometry" />
        </mxCell>
        <mxCell id="nKR082mUFp1Buz5sR-zI-123" style="edgeStyle=orthogonalEdgeStyle;rounded=0;orthogonalLoop=1;jettySize=auto;html=1;exitX=1;exitY=0.5;exitDx=0;exitDy=0;" edge="1" parent="1" source="nKR082mUFp1Buz5sR-zI-122" target="nKR082mUFp1Buz5sR-zI-117">
          <mxGeometry relative="1" as="geometry">
            <Array as="points" />
          </mxGeometry>
        </mxCell>
        <mxCell id="nKR082mUFp1Buz5sR-zI-122" value="DT_sobreaviso" style="ellipse;whiteSpace=wrap;html=1;align=center;" vertex="1" parent="1">
          <mxGeometry x="-170" y="905" width="100" height="40" as="geometry" />
        </mxCell>
        <mxCell id="nKR082mUFp1Buz5sR-zI-130" value="(0,N)" style="edgeStyle=orthogonalEdgeStyle;rounded=0;orthogonalLoop=1;jettySize=auto;html=1;exitX=0.5;exitY=0;exitDx=0;exitDy=0;entryX=0.5;entryY=1;entryDx=0;entryDy=0;endArrow=none;endFill=0;" edge="1" parent="1" source="nKR082mUFp1Buz5sR-zI-128" target="nKR082mUFp1Buz5sR-zI-117">
          <mxGeometry relative="1" as="geometry">
            <Array as="points">
              <mxPoint x="20" y="945" />
            </Array>
          </mxGeometry>
        </mxCell>
        <mxCell id="nKR082mUFp1Buz5sR-zI-128" value="MEDICO-SOBREAVISO" style="shape=rhombus;perimeter=rhombusPerimeter;whiteSpace=wrap;html=1;align=center;" vertex="1" parent="1">
          <mxGeometry x="-70" y="1025" width="180" height="60" as="geometry" />
        </mxCell>
        <mxCell id="nKR082mUFp1Buz5sR-zI-133" style="edgeStyle=orthogonalEdgeStyle;rounded=0;orthogonalLoop=1;jettySize=auto;html=1;exitX=1;exitY=0.5;exitDx=0;exitDy=0;entryX=0;entryY=0.5;entryDx=0;entryDy=0;" edge="1" parent="1" source="nKR082mUFp1Buz5sR-zI-131" target="nKR082mUFp1Buz5sR-zI-128">
          <mxGeometry relative="1" as="geometry" />
        </mxCell>
        <mxCell id="nKR082mUFp1Buz5sR-zI-131" value="HR_inicio" style="ellipse;whiteSpace=wrap;html=1;align=center;" vertex="1" parent="1">
          <mxGeometry x="-250" y="1055" width="100" height="40" as="geometry" />
        </mxCell>
        <mxCell id="nKR082mUFp1Buz5sR-zI-134" style="edgeStyle=orthogonalEdgeStyle;rounded=0;orthogonalLoop=1;jettySize=auto;html=1;exitX=1;exitY=0.5;exitDx=0;exitDy=0;entryX=0;entryY=0.5;entryDx=0;entryDy=0;" edge="1" parent="1" source="nKR082mUFp1Buz5sR-zI-132" target="nKR082mUFp1Buz5sR-zI-128">
          <mxGeometry relative="1" as="geometry">
            <mxPoint x="-30.000000000000227" y="1055" as="targetPoint" />
          </mxGeometry>
        </mxCell>
        <mxCell id="nKR082mUFp1Buz5sR-zI-132" value="HR_fim" style="ellipse;whiteSpace=wrap;html=1;align=center;" vertex="1" parent="1">
          <mxGeometry x="-251" y="1095" width="100" height="40" as="geometry" />
        </mxCell>
        <mxCell id="nKR082mUFp1Buz5sR-zI-159" value="(1,1)" style="edgeStyle=orthogonalEdgeStyle;rounded=0;orthogonalLoop=1;jettySize=auto;html=1;exitX=1;exitY=0.5;exitDx=0;exitDy=0;entryX=1;entryY=0.25;entryDx=0;entryDy=0;endArrow=none;endFill=0;" edge="1" parent="1" source="nKR082mUFp1Buz5sR-zI-155" target="nKR082mUFp1Buz5sR-zI-75">
          <mxGeometry relative="1" as="geometry">
            <Array as="points">
              <mxPoint x="950" y="1285" />
              <mxPoint x="950" y="815" />
            </Array>
          </mxGeometry>
        </mxCell>
        <mxCell id="nKR082mUFp1Buz5sR-zI-136" value="ATESTADO" style="whiteSpace=wrap;html=1;align=center;" vertex="1" parent="1">
          <mxGeometry x="510" y="1315.09" width="100" height="40" as="geometry" />
        </mxCell>
        <mxCell id="nKR082mUFp1Buz5sR-zI-143" style="edgeStyle=orthogonalEdgeStyle;rounded=0;orthogonalLoop=1;jettySize=auto;html=1;exitX=1;exitY=0.5;exitDx=0;exitDy=0;entryX=0.5;entryY=1;entryDx=0;entryDy=0;" edge="1" parent="1" source="nKR082mUFp1Buz5sR-zI-137" target="nKR082mUFp1Buz5sR-zI-136">
          <mxGeometry relative="1" as="geometry" />
        </mxCell>
        <mxCell id="nKR082mUFp1Buz5sR-zI-137" value="competencia" style="ellipse;whiteSpace=wrap;html=1;align=center;" vertex="1" parent="1">
          <mxGeometry x="430" y="1405" width="100" height="40" as="geometry" />
        </mxCell>
        <mxCell id="nKR082mUFp1Buz5sR-zI-145" style="edgeStyle=orthogonalEdgeStyle;rounded=0;orthogonalLoop=1;jettySize=auto;html=1;exitX=1;exitY=0.5;exitDx=0;exitDy=0;entryX=0.5;entryY=1;entryDx=0;entryDy=0;" edge="1" parent="1" source="nKR082mUFp1Buz5sR-zI-138" target="nKR082mUFp1Buz5sR-zI-136">
          <mxGeometry relative="1" as="geometry" />
        </mxCell>
        <mxCell id="nKR082mUFp1Buz5sR-zI-138" value="DT_atestado" style="ellipse;whiteSpace=wrap;html=1;align=center;" vertex="1" parent="1">
          <mxGeometry x="430" y="1445" width="100" height="40" as="geometry" />
        </mxCell>
        <mxCell id="nKR082mUFp1Buz5sR-zI-146" style="edgeStyle=orthogonalEdgeStyle;rounded=0;orthogonalLoop=1;jettySize=auto;html=1;exitX=1;exitY=0.5;exitDx=0;exitDy=0;" edge="1" parent="1" source="nKR082mUFp1Buz5sR-zI-139">
          <mxGeometry relative="1" as="geometry">
            <mxPoint x="560" y="1355.09" as="targetPoint" />
          </mxGeometry>
        </mxCell>
        <mxCell id="nKR082mUFp1Buz5sR-zI-139" value="HR_inicio" style="ellipse;whiteSpace=wrap;html=1;align=center;" vertex="1" parent="1">
          <mxGeometry x="430" y="1485" width="100" height="40" as="geometry" />
        </mxCell>
        <mxCell id="nKR082mUFp1Buz5sR-zI-147" style="edgeStyle=orthogonalEdgeStyle;rounded=0;orthogonalLoop=1;jettySize=auto;html=1;exitX=1;exitY=0.5;exitDx=0;exitDy=0;" edge="1" parent="1" source="nKR082mUFp1Buz5sR-zI-140">
          <mxGeometry relative="1" as="geometry">
            <mxPoint x="560" y="1355.09" as="targetPoint" />
          </mxGeometry>
        </mxCell>
        <mxCell id="nKR082mUFp1Buz5sR-zI-140" value="HR_fim" style="ellipse;whiteSpace=wrap;html=1;align=center;" vertex="1" parent="1">
          <mxGeometry x="430" y="1525" width="100" height="40" as="geometry" />
        </mxCell>
        <mxCell id="nKR082mUFp1Buz5sR-zI-157" value="(0,1)" style="edgeStyle=orthogonalEdgeStyle;rounded=0;orthogonalLoop=1;jettySize=auto;html=1;exitX=0.5;exitY=1;exitDx=0;exitDy=0;entryX=0;entryY=0.5;entryDx=0;entryDy=0;endArrow=none;endFill=0;" edge="1" parent="1" source="nKR082mUFp1Buz5sR-zI-155" target="nKR082mUFp1Buz5sR-zI-136">
          <mxGeometry relative="1" as="geometry">
            <mxPoint x="440" y="1315.09" as="sourcePoint" />
          </mxGeometry>
        </mxCell>
        <mxCell id="nKR082mUFp1Buz5sR-zI-155" value="ATESTADO_PLANTAO" style="shape=rhombus;perimeter=rhombusPerimeter;whiteSpace=wrap;html=1;align=center;" vertex="1" parent="1">
          <mxGeometry x="300" y="1255.09" width="160" height="60" as="geometry" />
        </mxCell>
        <mxCell id="nKR082mUFp1Buz5sR-zI-161" style="edgeStyle=orthogonalEdgeStyle;rounded=0;orthogonalLoop=1;jettySize=auto;html=1;exitX=1;exitY=0.5;exitDx=0;exitDy=0;entryX=0;entryY=0.5;entryDx=0;entryDy=0;" edge="1" parent="1" source="nKR082mUFp1Buz5sR-zI-160" target="nKR082mUFp1Buz5sR-zI-3">
          <mxGeometry relative="1" as="geometry" />
        </mxCell>
        <mxCell id="nKR082mUFp1Buz5sR-zI-160" value="SN_ativo" style="ellipse;whiteSpace=wrap;html=1;align=center;" vertex="1" parent="1">
          <mxGeometry x="-30" y="160" width="100" height="40" as="geometry" />
        </mxCell>
        <mxCell id="nKR082mUFp1Buz5sR-zI-164" style="edgeStyle=orthogonalEdgeStyle;rounded=0;orthogonalLoop=1;jettySize=auto;html=1;exitX=1;exitY=0.5;exitDx=0;exitDy=0;entryX=0;entryY=0.5;entryDx=0;entryDy=0;" edge="1" parent="1" source="nKR082mUFp1Buz5sR-zI-163" target="nKR082mUFp1Buz5sR-zI-128">
          <mxGeometry relative="1" as="geometry" />
        </mxCell>
        <mxCell id="nKR082mUFp1Buz5sR-zI-163" value="TP_especialidade" style="ellipse;whiteSpace=wrap;html=1;align=center;" vertex="1" parent="1">
          <mxGeometry x="-261" y="1135" width="110" height="40" as="geometry" />
        </mxCell>
        <mxCell id="nKR082mUFp1Buz5sR-zI-168" style="edgeStyle=orthogonalEdgeStyle;rounded=0;orthogonalLoop=1;jettySize=auto;html=1;exitX=0;exitY=0.5;exitDx=0;exitDy=0;entryX=1;entryY=0.5;entryDx=0;entryDy=0;" edge="1" parent="1" source="nKR082mUFp1Buz5sR-zI-166" target="nKR082mUFp1Buz5sR-zI-96">
          <mxGeometry relative="1" as="geometry" />
        </mxCell>
        <mxCell id="nKR082mUFp1Buz5sR-zI-166" value="turno" style="ellipse;whiteSpace=wrap;html=1;align=center;" vertex="1" parent="1">
          <mxGeometry x="480" y="885" width="100" height="40" as="geometry" />
        </mxCell>
        <mxCell id="nKR082mUFp1Buz5sR-zI-172" style="edgeStyle=orthogonalEdgeStyle;rounded=0;orthogonalLoop=1;jettySize=auto;html=1;exitX=1;exitY=0.5;exitDx=0;exitDy=0;entryX=0;entryY=0.5;entryDx=0;entryDy=0;" edge="1" parent="1" source="nKR082mUFp1Buz5sR-zI-171" target="nKR082mUFp1Buz5sR-zI-3">
          <mxGeometry relative="1" as="geometry" />
        </mxCell>
        <mxCell id="nKR082mUFp1Buz5sR-zI-171" value="CD_usuario" style="ellipse;whiteSpace=wrap;html=1;align=center;" vertex="1" parent="1">
          <mxGeometry x="-31" y="-40" width="100" height="40" as="geometry" />
        </mxCell>
        <mxCell id="nKR082mUFp1Buz5sR-zI-175" style="edgeStyle=orthogonalEdgeStyle;rounded=0;orthogonalLoop=1;jettySize=auto;html=1;exitX=0;exitY=0.5;exitDx=0;exitDy=0;entryX=1;entryY=0.5;entryDx=0;entryDy=0;" edge="1" parent="1" source="nKR082mUFp1Buz5sR-zI-173" target="nKR082mUFp1Buz5sR-zI-9">
          <mxGeometry relative="1" as="geometry" />
        </mxCell>
        <mxCell id="nKR082mUFp1Buz5sR-zI-173" value="CD_perfil" style="ellipse;whiteSpace=wrap;html=1;align=center;" vertex="1" parent="1">
          <mxGeometry x="550" y="30" width="100" height="40" as="geometry" />
        </mxCell>
        <mxCell id="nKR082mUFp1Buz5sR-zI-176" style="edgeStyle=orthogonalEdgeStyle;rounded=0;orthogonalLoop=1;jettySize=auto;html=1;exitX=0;exitY=0.5;exitDx=0;exitDy=0;entryX=1;entryY=0.5;entryDx=0;entryDy=0;" edge="1" parent="1" source="nKR082mUFp1Buz5sR-zI-174" target="nKR082mUFp1Buz5sR-zI-13">
          <mxGeometry relative="1" as="geometry" />
        </mxCell>
        <mxCell id="nKR082mUFp1Buz5sR-zI-174" value="CD_permissao" style="ellipse;whiteSpace=wrap;html=1;align=center;" vertex="1" parent="1">
          <mxGeometry x="550" y="200" width="100" height="40" as="geometry" />
        </mxCell>
        <mxCell id="nKR082mUFp1Buz5sR-zI-178" style="edgeStyle=orthogonalEdgeStyle;rounded=0;orthogonalLoop=1;jettySize=auto;html=1;exitX=0;exitY=0.5;exitDx=0;exitDy=0;entryX=1;entryY=0.5;entryDx=0;entryDy=0;" edge="1" parent="1" source="nKR082mUFp1Buz5sR-zI-177" target="nKR082mUFp1Buz5sR-zI-14">
          <mxGeometry relative="1" as="geometry" />
        </mxCell>
        <mxCell id="nKR082mUFp1Buz5sR-zI-177" value="CD_permissoes_perfil" style="ellipse;whiteSpace=wrap;html=1;align=center;" vertex="1" parent="1">
          <mxGeometry x="610" y="140" width="170" height="40" as="geometry" />
        </mxCell>
        <mxCell id="nKR082mUFp1Buz5sR-zI-180" style="edgeStyle=orthogonalEdgeStyle;rounded=0;orthogonalLoop=1;jettySize=auto;html=1;exitX=1;exitY=0.5;exitDx=0;exitDy=0;entryX=0;entryY=0.5;entryDx=0;entryDy=0;" edge="1" parent="1" source="nKR082mUFp1Buz5sR-zI-179" target="nKR082mUFp1Buz5sR-zI-12">
          <mxGeometry relative="1" as="geometry" />
        </mxCell>
        <mxCell id="nKR082mUFp1Buz5sR-zI-179" value="CD_categoria" style="ellipse;whiteSpace=wrap;html=1;align=center;" vertex="1" parent="1">
          <mxGeometry x="-31" y="220" width="100" height="40" as="geometry" />
        </mxCell>
        <mxCell id="nKR082mUFp1Buz5sR-zI-182" style="edgeStyle=orthogonalEdgeStyle;rounded=0;orthogonalLoop=1;jettySize=auto;html=1;exitX=1;exitY=0.5;exitDx=0;exitDy=0;entryX=0;entryY=0.5;entryDx=0;entryDy=0;" edge="1" parent="1" source="nKR082mUFp1Buz5sR-zI-181" target="nKR082mUFp1Buz5sR-zI-33">
          <mxGeometry relative="1" as="geometry" />
        </mxCell>
        <mxCell id="nKR082mUFp1Buz5sR-zI-181" value="CD_filial" style="ellipse;whiteSpace=wrap;html=1;align=center;" vertex="1" parent="1">
          <mxGeometry x="-460" y="330" width="100" height="40" as="geometry" />
        </mxCell>
        <mxCell id="nKR082mUFp1Buz5sR-zI-184" style="edgeStyle=orthogonalEdgeStyle;rounded=0;orthogonalLoop=1;jettySize=auto;html=1;exitX=1;exitY=0.5;exitDx=0;exitDy=0;" edge="1" parent="1" source="nKR082mUFp1Buz5sR-zI-183" target="nKR082mUFp1Buz5sR-zI-30">
          <mxGeometry relative="1" as="geometry" />
        </mxCell>
        <mxCell id="nKR082mUFp1Buz5sR-zI-183" value="CD_local" style="ellipse;whiteSpace=wrap;html=1;align=center;" vertex="1" parent="1">
          <mxGeometry x="-160" y="505" width="100" height="40" as="geometry" />
        </mxCell>
        <mxCell id="nKR082mUFp1Buz5sR-zI-200" style="edgeStyle=orthogonalEdgeStyle;rounded=0;orthogonalLoop=1;jettySize=auto;html=1;exitX=1;exitY=0.5;exitDx=0;exitDy=0;entryX=0;entryY=0.5;entryDx=0;entryDy=0;" edge="1" parent="1" source="nKR082mUFp1Buz5sR-zI-185" target="nKR082mUFp1Buz5sR-zI-117">
          <mxGeometry relative="1" as="geometry" />
        </mxCell>
        <mxCell id="nKR082mUFp1Buz5sR-zI-185" value="CD_sobreaviso" style="ellipse;whiteSpace=wrap;html=1;align=center;" vertex="1" parent="1">
          <mxGeometry x="-170" y="865" width="100" height="40" as="geometry" />
        </mxCell>
        <mxCell id="nKR082mUFp1Buz5sR-zI-187" style="edgeStyle=orthogonalEdgeStyle;rounded=0;orthogonalLoop=1;jettySize=auto;html=1;exitX=1;exitY=0.5;exitDx=0;exitDy=0;entryX=0;entryY=0.5;entryDx=0;entryDy=0;" edge="1" parent="1" source="nKR082mUFp1Buz5sR-zI-186" target="nKR082mUFp1Buz5sR-zI-75">
          <mxGeometry relative="1" as="geometry">
            <Array as="points">
              <mxPoint x="290" y="785" />
              <mxPoint x="290" y="825" />
            </Array>
          </mxGeometry>
        </mxCell>
        <mxCell id="nKR082mUFp1Buz5sR-zI-186" value="&lt;span style=&quot;border-bottom: 1px dotted&quot;&gt;CD_plantao&lt;/span&gt;" style="ellipse;whiteSpace=wrap;html=1;align=center;" vertex="1" parent="1">
          <mxGeometry x="170" y="764.91" width="100" height="40" as="geometry" />
        </mxCell>
        <mxCell id="nKR082mUFp1Buz5sR-zI-190" style="edgeStyle=orthogonalEdgeStyle;rounded=0;orthogonalLoop=1;jettySize=auto;html=1;exitX=1;exitY=0.5;exitDx=0;exitDy=0;entryX=0;entryY=0.5;entryDx=0;entryDy=0;" edge="1" parent="1" source="nKR082mUFp1Buz5sR-zI-189" target="nKR082mUFp1Buz5sR-zI-55">
          <mxGeometry relative="1" as="geometry" />
        </mxCell>
        <mxCell id="nKR082mUFp1Buz5sR-zI-189" value="CD_medico" style="ellipse;whiteSpace=wrap;html=1;align=center;" vertex="1" parent="1">
          <mxGeometry x="90" y="1175" width="100" height="40" as="geometry" />
        </mxCell>
        <mxCell id="nKR082mUFp1Buz5sR-zI-199" style="edgeStyle=orthogonalEdgeStyle;rounded=0;orthogonalLoop=1;jettySize=auto;html=1;exitX=0;exitY=0.5;exitDx=0;exitDy=0;entryX=1;entryY=0.5;entryDx=0;entryDy=0;" edge="1" parent="1" source="nKR082mUFp1Buz5sR-zI-191" target="nKR082mUFp1Buz5sR-zI-59">
          <mxGeometry relative="1" as="geometry" />
        </mxCell>
        <mxCell id="nKR082mUFp1Buz5sR-zI-191" value="CD_especialidade" style="ellipse;whiteSpace=wrap;html=1;align=center;" vertex="1" parent="1">
          <mxGeometry x="820" y="1105" width="120" height="40" as="geometry" />
        </mxCell>
        <mxCell id="nKR082mUFp1Buz5sR-zI-192" value="CD_atestado" style="ellipse;whiteSpace=wrap;html=1;align=center;" vertex="1" parent="1">
          <mxGeometry x="430" y="1365" width="100" height="40" as="geometry" />
        </mxCell>
        <mxCell id="nKR082mUFp1Buz5sR-zI-194" style="edgeStyle=orthogonalEdgeStyle;rounded=0;orthogonalLoop=1;jettySize=auto;html=1;exitX=0.5;exitY=0;exitDx=0;exitDy=0;entryX=0.5;entryY=1;entryDx=0;entryDy=0;" edge="1" parent="1" source="nKR082mUFp1Buz5sR-zI-193" target="nKR082mUFp1Buz5sR-zI-58">
          <mxGeometry relative="1" as="geometry" />
        </mxCell>
        <mxCell id="nKR082mUFp1Buz5sR-zI-193" value="CD_especialidade_medico" style="ellipse;whiteSpace=wrap;html=1;align=center;" vertex="1" parent="1">
          <mxGeometry x="480" y="1225" width="160" height="40" as="geometry" />
        </mxCell>
        <mxCell id="nKR082mUFp1Buz5sR-zI-198" style="edgeStyle=orthogonalEdgeStyle;rounded=0;orthogonalLoop=1;jettySize=auto;html=1;exitX=0;exitY=0.5;exitDx=0;exitDy=0;entryX=1;entryY=0.5;entryDx=0;entryDy=0;" edge="1" parent="1" source="nKR082mUFp1Buz5sR-zI-195" target="nKR082mUFp1Buz5sR-zI-96">
          <mxGeometry relative="1" as="geometry" />
        </mxCell>
        <mxCell id="nKR082mUFp1Buz5sR-zI-195" value="CD_medico_plantao" style="ellipse;whiteSpace=wrap;html=1;align=center;" vertex="1" parent="1">
          <mxGeometry x="480" y="845" width="130" height="40" as="geometry" />
        </mxCell>
        <mxCell id="nKR082mUFp1Buz5sR-zI-202" style="edgeStyle=orthogonalEdgeStyle;rounded=0;orthogonalLoop=1;jettySize=auto;html=1;exitX=1;exitY=0.5;exitDx=0;exitDy=0;entryX=0;entryY=0.5;entryDx=0;entryDy=0;" edge="1" parent="1" source="nKR082mUFp1Buz5sR-zI-201" target="nKR082mUFp1Buz5sR-zI-128">
          <mxGeometry relative="1" as="geometry">
            <Array as="points">
              <mxPoint x="-110" y="1035" />
              <mxPoint x="-110" y="1055" />
            </Array>
          </mxGeometry>
        </mxCell>
        <mxCell id="nKR082mUFp1Buz5sR-zI-201" value="CD_medico_sobreaviso" style="ellipse;whiteSpace=wrap;html=1;align=center;" vertex="1" parent="1">
          <mxGeometry x="-300" y="1015" width="150" height="40" as="geometry" />
        </mxCell>
        <mxCell id="nKR082mUFp1Buz5sR-zI-208" style="edgeStyle=orthogonalEdgeStyle;rounded=0;orthogonalLoop=1;jettySize=auto;html=1;exitX=1;exitY=0.5;exitDx=0;exitDy=0;entryX=0;entryY=0.5;entryDx=0;entryDy=0;" edge="1" parent="1" source="nKR082mUFp1Buz5sR-zI-207" target="nKR082mUFp1Buz5sR-zI-155">
          <mxGeometry relative="1" as="geometry" />
        </mxCell>
        <mxCell id="nKR082mUFp1Buz5sR-zI-207" value="CD_atestado_plantao" style="ellipse;whiteSpace=wrap;html=1;align=center;" vertex="1" parent="1">
          <mxGeometry x="120" y="1345" width="130" height="40" as="geometry" />
        </mxCell>
      </root>
    </mxGraphModel>
  </diagram>
</mxfile>
